<svg width="48" height="48" viewBox="0 0 128 128" xmlns="http://www.w3.org/2000/svg">
  <defs>
    <linearGradient id="puddingGradient" x1="0%" y1="0%" x2="0%" y2="100%">
      <stop offset="0%" style="stop-color:#FFE5B4;stop-opacity:1" />
      <stop offset="50%" style="stop-color:#F4C542;stop-opacity:1" />
      <stop offset="100%" style="stop-color:#D4A574;stop-opacity:1" />
    </linearGradient>
    <linearGradient id="caramelGradient" x1="0%" y1="0%" x2="0%" y2="100%">
      <stop offset="0%" style="stop-color:#C17817;stop-opacity:1" />
      <stop offset="100%" style="stop-color:#8B5A00;stop-opacity:1" />
    </linearGradient>
    <radialGradient id="shineGradient" cx="50%" cy="30%">
      <stop offset="0%" style="stop-color:#FFFFFF;stop-opacity:0.6" />
      <stop offset="100%" style="stop-color:#FFFFFF;stop-opacity:0" />
    </radialGradient>
  </defs>
  <ellipse cx="64" cy="115" rx="45" ry="8" fill="#000000" opacity="0.15"/>
  <path d="M 35 95 Q 35 50 64 45 Q 93 50 93 95 L 93 100 Q 93 110 64 110 Q 35 110 35 100 Z" 
        fill="url(#puddingGradient)" stroke="#D4A574" stroke-width="2"/>
  <ellipse cx="64" cy="45" rx="29" ry="12" fill="url(#caramelGradient)"/>
  <path d="M 35 45 Q 40 50 50 48 Q 60 46 64 50 Q 68 46 78 48 Q 88 50 93 45" 
        fill="none" stroke="#8B5A00" stroke-width="1.5" opacity="0.5"/>
  <ellipse cx="55" cy="60" rx="15" ry="25" fill="url(#shineGradient)"/>
  <path d="M 40 70 Q 50 72 60 70 Q 70 68 80 70" 
        fill="none" stroke="#E6C068" stroke-width="1" opacity="0.4"/>
  <path d="M 42 85 Q 52 87 62 85 Q 72 83 82 85" 
        fill="none" stroke="#E6C068" stroke-width="1" opacity="0.4"/>
  <circle cx="52" cy="65" r="3" fill="#8B5A00"/>
  <circle cx="76" cy="65" r="3" fill="#8B5A00"/>
  <path d="M 55 75 Q 64 80 73 75" fill="none" stroke="#8B5A00" stroke-width="2" stroke-linecap="round"/>
  <ellipse cx="45" cy="70" rx="5" ry="3" fill="#FFB6C1" opacity="0.5"/>
  <ellipse cx="83" cy="70" rx="5" ry="3" fill="#FFB6C1" opacity="0.5"/>
</svg>
